<svg id="Layer_1" data-name="Layer 1" xmlns="http://www.w3.org/2000/svg" viewBox="0 0 464 480"><defs><style>.cls-1{fill:#fcfcfc;}</style></defs><title>online-class</title><path class="cls-1" d="M440,456a8,8,0,0,1-8,8H352V436.64a56.24,56.24,0,0,0-41.26-54L264,369.89V357.78A56,56,0,0,0,288,312V296.86c2-.94,3.33-1.6,3.57-1.7A8,8,0,0,0,296,288V240l42.87-16.49a8,8,0,0,0,0-14.94l-104-40a8,8,0,0,0-5.74,0l-104,40A8,8,0,0,0,120,216v36.69L98.34,274.34l11.32,11.32L120,275.31V288h16V275.31l10.34,10.35,11.32-11.32L136,252.69v-25L168,240v48a8,8,0,0,0,4.43,7.2c.24.12,1.53.76,3.57,1.69V312a54.91,54.91,0,0,0,24,45.8v12.09l-46.77,12.72a56.23,56.23,0,0,0-41.23,54V464H32a8,8,0,0,1-8-8V144H248V128H24V88a8,8,0,0,1,8-8H248V64H32A24,24,0,0,0,8,88V456a24,24,0,0,0,24,24H432a24,24,0,0,0,24-24V160H440ZM216,376V365.6a54.37,54.37,0,0,0,32,0V376a7.94,7.94,0,0,0,2.79,5.95L232,397.6,213.21,382A7.88,7.88,0,0,0,216,376Zm16-191.43L313.71,216,232,247.43,150.29,216Zm-2.87,78.9a8,8,0,0,0,5.74,0L280,246.11v36.8A137.24,137.24,0,0,1,232,296a137.47,137.47,0,0,1-48-13.1V246.11ZM192,312v-8.59A124.58,124.58,0,0,0,232,312a124.58,124.58,0,0,0,40-8.59V312a40,40,0,0,1-60.06,34.55,37.68,37.68,0,0,1-8.23-6.31A39.43,39.43,0,0,1,192,312ZM128,436.64A40.2,40.2,0,0,1,157.46,398l37.74-10.26,31.68,26.4a8,8,0,0,0,10.24,0l31.68-26.4L306.51,398A40.23,40.23,0,0,1,336,436.64V464H312V432H296v32H168V432H152v32H128Z" transform="translate(-8)"/><path class="cls-1" d="M56,96H72v16H56Z" transform="translate(-8)"/><path class="cls-1" d="M88,96h16v16H88Z" transform="translate(-8)"/><path class="cls-1" d="M120,96h16v16H120Z" transform="translate(-8)"/><path class="cls-1" d="M448,0H288a24,24,0,0,0-24,24v96a24,24,0,0,0,24,24h24v32a8,8,0,0,0,5.35,7.55A8.24,8.24,0,0,0,320,184a8,8,0,0,0,6.25-3l29.59-37H448a24,24,0,0,0,24-24V24A24,24,0,0,0,448,0Zm8,120a8,8,0,0,1-8,8H352a8,8,0,0,0-6.25,3L328,153.19V136a8,8,0,0,0-8-8H288a8,8,0,0,1-8-8V24a8,8,0,0,1,8-8H448a8,8,0,0,1,8,8Z" transform="translate(-8)"/><path class="cls-1" d="M312,32H424V48H312Z" transform="translate(-8)"/><path class="cls-1" d="M312,64H424V80H312Z" transform="translate(-8)"/><path class="cls-1" d="M312,96H424v16H312Z" transform="translate(-8)"/></svg>