<svg id="Capa_1" data-name="Capa 1" xmlns="http://www.w3.org/2000/svg" viewBox="0 0 512 493.71"><defs><style>.cls-1{fill:#fff;}</style></defs><title>online-course</title><path class="cls-1" d="M200,466.29H312c-11.27-12.47-17.9-31-19.22-54.86H219.17c-1.32,23.82-7.95,42.39-19.22,54.86Z" transform="translate(0 -9.14)"/><path class="cls-1" d="M374.86,484.57H137.14a9.15,9.15,0,0,0,0,18.29H374.86a9.15,9.15,0,0,0,0-18.29Z" transform="translate(0 -9.14)"/><path class="cls-1" d="M27.43,338.28H0v36.57a18.3,18.3,0,0,0,18.29,18.29H493.71A18.3,18.3,0,0,0,512,374.85V338.28H27.43Zm256,36.58H228.57a9.15,9.15,0,0,1,0-18.29h54.86a9.15,9.15,0,0,1,0,18.29Z" transform="translate(0 -9.14)"/><path class="cls-1" d="M265.14,246.86a9.14,9.14,0,0,1-18.28,0V225.24l-91.43-43v49.85L256,282.35l100.57-50.29V182.21l-91.43,43v21.62Z" transform="translate(0 -9.14)"/><path class="cls-1" d="M18.29,36.57a9.14,9.14,0,0,1,9.14-9.14H484.57a9.15,9.15,0,0,1,9.15,9.14V320H512V27.44a18.31,18.31,0,0,0-18.29-18.3H18.29A18.31,18.31,0,0,0,0,27.44V320H18.29Z" transform="translate(0 -9.14)"/><path class="cls-1" d="M370.52,155.43H265.14v9.14a9.14,9.14,0,1,1-18.28,0V128a9.14,9.14,0,0,1,18.28,0v9.14H370.52L256,83.25l-133.95,63,134,63Z" transform="translate(0 -9.14)"/><path class="cls-1" d="M36.57,320H475.43V45.71H36.57ZM96.68,138,252.11,64.87a9.13,9.13,0,0,1,7.78,0l1.7.79,4.79,2.25L393.3,127.64q6.9,3.26,13.84,6.51l5.52,2.6c.91.43,1.89.8,2.77,1.29a10,10,0,0,1,5.14,8.74v79l16.75,25.12a9.15,9.15,0,0,1-2.53,12.68,9,9,0,0,1-5.07,1.54,9.16,9.16,0,0,1-7.62-4.07l-10.68-16-10.68,16a9.14,9.14,0,0,1-15.21-10.15l16.75-25.12V160.69l-27.42,12.9v64.12a9.17,9.17,0,0,1-5.06,8.19L260.09,300.75a9.2,9.2,0,0,1-4.09,1,9,9,0,0,1-4.09-1L142.2,245.9a9.17,9.17,0,0,1-5.06-8.19V173.59l-40.46-19a9.14,9.14,0,0,1,0-16.54Z" transform="translate(0 -9.14)"/></svg>