<?xml version="1.0" encoding="utf-8"?>
<!-- Generator: Adobe Illustrator 16.0.0, SVG Export Plug-In . SVG Version: 6.00 Build 0)  -->
<!DOCTYPE svg PUBLIC "-//W3C//DTD SVG 1.1//EN" "http://www.w3.org/Graphics/SVG/1.1/DTD/svg11.dtd">
<svg version="1.1" id="Capa_1" xmlns="http://www.w3.org/2000/svg" xmlns:xlink="http://www.w3.org/1999/xlink" x="0px" y="0px"
	 width="512px" height="512px" viewBox="0 0 512 512" enable-background="new 0 0 512 512" xml:space="preserve">
<g>
	<g>
		<path fill="#FFFFFF" d="M488.71,117.338H379.798c14.956,13.366,27.745,29.031,37.77,46.537h71.145
			c12.854,0,23.279-10.414,23.279-23.268C511.989,127.763,501.564,117.338,488.71,117.338z"/>
		<path fill="#FFFFFF" d="M488.71,176.021h-64.859c6.993,14.598,12.157,30.175,15.153,46.537h49.706
			c12.854,0,23.279-10.414,23.279-23.268C511.989,186.435,501.564,176.021,488.71,176.021z"/>
		<path fill="#FFFFFF" d="M488.71,58.677H316.432c-10.033,0-18.476,6.362-21.766,15.229c25.764,5.468,49.467,16.384,70.121,31.308
			h123.934c12.865,0,23.29-10.414,23.29-23.269C512.011,69.091,501.564,58.677,488.71,58.677z"/>
		<path fill="#FFFFFF" d="M316.432,46.542H488.71c12.854,0,23.279-10.414,23.279-23.269c0-12.843-10.425-23.268-23.279-23.268
			H316.432c-12.865,0-23.279,10.425-23.279,23.279S303.566,46.542,316.432,46.542z"/>
		<path fill="#FFFFFF" d="M488.71,234.671h-47.854c0.797,7.015,1.309,14.107,1.309,21.329c0,8.563-0.773,16.961-1.906,25.207H488.7
			c12.854,0,23.278-10.425,23.278-23.279C511.979,245.074,501.564,234.671,488.71,234.671z"/>
		<path fill="#FFFFFF" d="M488.71,293.343h-50.316c-3.364,16.448-9.028,32.005-16.428,46.536h66.744
			c12.854,0,23.279-10.414,23.279-23.269C511.989,303.757,501.564,293.343,488.71,293.343z"/>
		<path fill="#FFFFFF" d="M488.71,352.003h-73.509c-10.664,17.615-24.01,33.367-39.706,46.537H488.71
			c12.854,0,23.279-10.414,23.279-23.271C511.989,362.416,501.564,352.003,488.71,352.003z"/>
		<path fill="#FFFFFF" d="M23.279,277.329h47.854c-0.806-7.015-1.317-14.106-1.317-21.329c0-8.562,0.783-16.95,1.906-25.207H23.279
			C10.425,230.804,0,241.218,0,254.072C0,266.915,10.425,277.329,23.279,277.329z"/>
		<path fill="#FFFFFF" d="M23.279,336.001h64.859c-6.982-14.597-12.157-30.175-15.152-46.524H23.279
			C10.425,289.477,0,299.879,0,312.732C0,325.587,10.425,336.001,23.279,336.001z"/>
		<path fill="#FFFFFF" d="M23.279,218.668h50.316c3.355-16.438,9.031-32.005,16.416-46.537H23.279C10.425,172.121,0,182.535,0,195.4
			C0,208.265,10.425,218.668,23.279,218.668z"/>
		<path fill="#FFFFFF" d="M23.279,160.007h73.508c10.665-17.604,24.01-33.366,39.696-46.537H23.279
			C10.425,113.471,0,123.885,0,136.729C0,149.583,10.425,160.007,23.279,160.007z"/>
		<path fill="#FFFFFF" d="M23.279,394.662h108.912c-14.957-13.366-27.746-29.021-37.768-46.525H23.279
			C10.425,348.137,0,358.551,0,371.394C0,384.259,10.425,394.662,23.279,394.662z"/>
		<path fill="#FFFFFF" d="M23.279,453.334h172.279c10.032,0,18.485-6.362,21.765-15.229c-25.763-5.47-49.468-16.386-70.11-31.31
			H23.279C10.425,406.786,0,417.2,0,430.065C0,442.92,10.425,453.334,23.279,453.334z"/>
		<path fill="#FFFFFF" d="M195.559,465.469H23.279C10.425,465.469,0,475.872,0,488.737c0,12.843,10.425,23.257,23.279,23.257
			h172.279c12.864,0,23.279-10.425,23.279-23.278C218.838,475.861,208.423,465.469,195.559,465.469z"/>
		<path fill="#FFFFFF" d="M255.994,93.1c-89.826,0-162.899,73.073-162.899,162.9s73.073,162.91,162.899,162.91
			c89.827,0,162.898-73.072,162.898-162.91S345.821,93.1,255.994,93.1z M255.994,372.363c-64.162,0-116.363-52.19-116.363-116.363
			c0-64.162,52.201-116.363,116.363-116.363c64.174,0,116.363,52.201,116.363,116.363
			C372.357,320.173,320.168,372.363,255.994,372.363z"/>
	</g>
</g>
<g>
	<path fill="#FFFFFF" d="M206.209,202.003c0-8.86,7.004-15.865,15.864-15.865h43.063c34.409,0,55.22,20.398,55.22,49.862v0.413
		c0,33.377-25.962,50.685-58.309,50.685H237.94v28.642c0,8.859-7.007,15.864-15.867,15.864c-8.859,0-15.864-7.005-15.864-15.864
		V202.003z M263.075,258.871c15.866,0,25.138-9.477,25.138-21.84v-0.412c0-14.217-9.891-21.84-25.754-21.84H237.94v44.092H263.075z"
		/>
</g>
<path fill="#FFFFFF" d="M337.247,227.317c0,3.834-4.651,6.941-10.39,6.941H195.171c-5.738,0-10.39-3.109-10.39-6.941l0,0
	c0-3.833,4.651-6.942,10.39-6.942h131.688C332.596,220.375,337.247,223.483,337.247,227.317L337.247,227.317z"/>
<path fill="#FFFFFF" d="M337.247,246.887c0,3.834-4.651,6.942-10.39,6.942H195.171c-5.738,0-10.39-3.109-10.39-6.942l0,0
	c0-3.835,4.651-6.942,10.39-6.942h131.688C332.596,239.944,337.247,243.052,337.247,246.887L337.247,246.887z"/>
</svg>
