<?xml version="1.0" encoding="utf-8"?>
<!-- Generator: Adobe Illustrator 16.0.0, SVG Export Plug-In . SVG Version: 6.00 Build 0)  -->
<!DOCTYPE svg PUBLIC "-//W3C//DTD SVG 1.1//EN" "http://www.w3.org/Graphics/SVG/1.1/DTD/svg11.dtd">
<svg version="1.1" id="Capa_1" xmlns="http://www.w3.org/2000/svg" xmlns:xlink="http://www.w3.org/1999/xlink" x="0px" y="0px"
	 width="512px" height="512px" viewBox="0 0 512 512" enable-background="new 0 0 512 512" xml:space="preserve">
<g>
	<g id="Layer_5_58_">
		<g>
			<g>
				<path fill="#FFFFFF" d="M376.614,32.482c-74.774,0-135.387,60.617-135.387,135.387c0,74.772,60.613,135.39,135.387,135.39
					C451.387,303.26,512,242.642,512,167.87C512,93.099,451.387,32.482,376.614,32.482z M376.614,271.883
					c-57.446,0-104.013-46.57-104.013-104.012s46.564-104.01,104.013-104.01c57.441,0,104.007,46.568,104.007,104.01
					S434.058,271.883,376.614,271.883z"/>
				<g>
					<g enable-background="new    ">
						<path fill="#FFFFFF" d="M333.498,118.604c0-7.52,5.945-13.466,13.465-13.466h36.55c29.205,0,46.868,17.313,46.868,42.321v0.35
							c0,28.33-22.035,43.02-49.49,43.02H360.43v24.309c0,7.52-5.947,13.466-13.467,13.466s-13.465-5.946-13.465-13.466V118.604z
							 M381.764,166.871c13.467,0,21.336-8.044,21.336-18.537v-0.35c0-12.067-8.395-18.537-21.858-18.537H360.43v37.424H381.764z"/>
					</g>
					<path fill="#FFFFFF" d="M444.718,139.392c0,3.254-3.948,5.892-8.817,5.892H324.129c-4.87,0-8.818-2.639-8.818-5.892l0,0
						c0-3.254,3.948-5.893,8.818-5.893H435.9C440.77,133.5,444.718,136.138,444.718,139.392L444.718,139.392z"/>
					<path fill="#FFFFFF" d="M444.718,156.548c0,3.254-3.948,5.892-8.817,5.892H324.129c-4.87,0-8.818-2.639-8.818-5.892l0,0
						c0-3.255,3.948-5.892,8.818-5.892H435.9C440.77,150.656,444.718,153.293,444.718,156.548L444.718,156.548z"/>
				</g>
			</g>
			<g>
				<path fill="#FFFFFF" d="M484.49,368.866c-28.789,15.89-68.387,30.582-107.875,36.773
					c-35.133,5.512-101.229-7.776-101.229-23.472c0-5.946,57.97,14.653,93.033,5.298c26.89-7.174,23.072-32.326,8.447-35.645
					c-14.541-3.3-99.729-34.509-136.116-35.585c-17.141-0.506-59.459,5.962-79.937,9.297c-7.015,1.142-11.414,1.016-11.852,7.729
					c-2.038,31.2-6.054,95.002-8.243,128.328c-0.046,0.704,0.932,10.174,8.747,3.51c8.553-7.294,20.549-15.378,31.646-12.859
					c17.408,3.95,168.01,31.54,188.784,26.712c29.718-6.908,113.843-56.763,129.972-72.258
					C524.865,382.671,505.432,357.309,484.49,368.866z"/>
				<path fill="#FFFFFF" d="M107.403,324.318l-78.896-3.89c-6.091-0.3-12.313,4.29-13.826,10.197L0.335,460.873
					c-1.513,5.908,2.237,10.936,8.331,11.171l87.437-0.009c6.096,0.233,11.461-4.547,11.929-10.628l9.602-125.488
					C118.098,329.84,113.494,324.618,107.403,324.318z M60.956,454.78c-12.048,0-21.814-9.769-21.814-21.813
					c0-12.049,9.767-21.813,21.814-21.813s21.813,9.767,21.813,21.813C82.77,445.015,73.004,454.78,60.956,454.78z"/>
			</g>
		</g>
	</g>
</g>
</svg>
