<?xml version="1.0" encoding="utf-8"?>
<!-- Generator: Adobe Illustrator 16.0.0, SVG Export Plug-In . SVG Version: 6.00 Build 0)  -->
<!DOCTYPE svg PUBLIC "-//W3C//DTD SVG 1.1//EN" "http://www.w3.org/Graphics/SVG/1.1/DTD/svg11.dtd">
<svg version="1.1" id="Capa_1" xmlns="http://www.w3.org/2000/svg" xmlns:xlink="http://www.w3.org/1999/xlink" x="0px" y="0px"
	 width="512px" height="512px" viewBox="0 0 512 512" enable-background="new 0 0 512 512" xml:space="preserve">
<g>
	<g>
		<path fill="#FFFFFF" d="M375.018,152.581h-150c-8.284,0-15,4.813-15,10.75c0,5.937,6.716,10.75,15,10.75h150
			c8.284,0,15-4.813,15-10.75C390.018,157.394,383.302,152.581,375.018,152.581z"/>
	</g>
</g>
<g>
	<g>
		<path fill="#FFFFFF" d="M375.018,255.417h-150c-8.284,0-15,4.813-15,10.75c0,5.937,6.716,10.75,15,10.75h150
			c8.284,0,15-4.813,15-10.75C390.018,260.229,383.302,255.417,375.018,255.417z"/>
	</g>
</g>
<g>
	<g>
		<path fill="#FFFFFF" d="M375.018,305.246h-150c-8.284,0-15,4.813-15,10.75c0,5.937,6.716,10.75,15,10.75h150
			c8.284,0,15-4.813,15-10.75C390.018,310.059,383.302,305.246,375.018,305.246z"/>
	</g>
</g>
<g>
	<g>
		<path fill="#FFFFFF" d="M375.018,204.578h-124.5c-8.284,0-2.518,4.813-2.518,10.75c0,5.937-5.766,10.75,2.518,10.75h124.5
			c8.284,0,15-4.813,15-10.75C390.018,209.391,383.302,204.578,375.018,204.578z"/>
	</g>
</g>
<g>
	<g>
		<path fill="#FFFFFF" d="M285.018,422h-90c-8.284,0-15,6.716-15,15s6.716,15,15,15h90c8.284,0,15-6.716,15-15
			S293.302,422,285.018,422z"/>
	</g>
</g>
<path fill="#FFFFFF" d="M148,211.5v-188c0,0-1.5-20,17.5-20s194.667,0,194.667,0l93.667,94v311.656c0,0-1.001,18-16.334,18
	s-239,0-239,0s2.667-5.332,2.667-18.666H430.5c0,0,4.25,0.26,4.375-4.99v-293h-79.708c0,0-8.667,1.333-8.667-8s0-81,0-81H169.167
	c0,0-2.667-0.666-2.667,3.667s0,178.667,0,178.667S154.167,203.834,148,211.5z"/>
<path fill="#FFFFFF" d="M223.167,202.161c0,0,15.622-3.208,17.318,13.167c1.682,16.245-20.318,40.833-51.651,45.833
	c0,0-27,2.332-23,29.666s15,41.667,20.667,69.667s12.333,53.334,7,62.667s-33.667,33.666-33.667,33.666L79.5,372.161
	c0,0,10-12.334,10-18.334s-2.333-71.333,6.333-84.333s16.333-21.667,27.667-29.667s24.472-19.333,24.472-19.333s10.528-11,24.195-12
	S213.5,206.827,223.167,202.161z"/>
<rect x="24.432" y="408.802" transform="matrix(0.6854 0.7281 -0.7281 0.6854 350.2753 70.4215)" fill="#FFFFFF" width="138.401" height="63.625"/>
</svg>
