<svg height="512" viewBox="0 0 64 64" width="512" xmlns="http://www.w3.org/2000/svg"><g id="online_learnning" data-name="online learnning"><path d="m59 21v36h-54v-36a2.006 2.006 0 0 1 2-2h50a2.006 2.006 0 0 1 2 2z" fill="#57a4ff"/><path d="m59 21v36h-4v-36a2.006 2.006 0 0 0 -2-2h4a2.006 2.006 0 0 1 2 2z" fill="#2488ff"/><path d="m61 55-.72 4.33a2.006 2.006 0 0 1 -1.97 1.67h-52.62a2.006 2.006 0 0 1 -1.97-1.67l-.72-4.33h25v2h8v-2z" fill="#c6c5ca"/><path d="m61 55-.72 4.33a2.006 2.006 0 0 1 -1.97 1.67h-5a2.006 2.006 0 0 0 1.97-1.67l.72-4.33z" fill="#acabb1"/><circle cx="51" cy="13" fill="#ff7956" r="10"/><path d="m61 13a10 10 0 0 1 -18.78 4.78 9.9 9.9 0 0 0 4.78 1.22 10 10 0 0 0 10-10 9.9 9.9 0 0 0 -1.22-4.78 9.984 9.984 0 0 1 5.22 8.78z" fill="#ff6243"/><path d="m57 13-10 5v-10z" fill="#ffde55"/><path d="m55 29v8a2.006 2.006 0 0 1 -2 2h-7l-4 4v-4h-2a2.006 2.006 0 0 1 -2-2v-8a2.006 2.006 0 0 1 2-2h13a2.006 2.006 0 0 1 2 2z" fill="#00d7df"/><path d="m55 29v8a2.006 2.006 0 0 1 -2 2h-4a2.006 2.006 0 0 0 2-2v-8a2.006 2.006 0 0 0 -2-2h4a2.006 2.006 0 0 1 2 2z" fill="#00b6bd"/><path d="m41 55h-5v2h-8v-2h-19a8 8 0 0 1 8-8h2.33l-1.33 1 2 3h10l2-3-1.33-1h2.33a8 8 0 0 1 8 8z" fill="#c0ab91"/><path d="m41 55h-4a8.006 8.006 0 0 0 -6-7.75l-.33-.25h2.33a8 8 0 0 1 8 8z" fill="#b39a7c"/><path d="m34 34v1a1 1 0 0 1 -1 1h-2v-3h2a1 1 0 0 1 1 1z" fill="#ffdaaa"/><path d="m34 23v2a5.985 5.985 0 0 1 -3 5.19v-.19l-3.1-.78a3.81 3.81 0 0 1 -.9 1.78c-1.33 1.43-3.7 1.56-4 1-.19-.36.58-.79 1-2a6.082 6.082 0 0 0 0-2h-1l-4 2v1h-1a2.006 2.006 0 0 1 -2-2v-2a4 4 0 0 1 4-4z" fill="#ffde55"/><path d="m32 48-2 3h-10l-2-3 1.33-1 2.67-2v-3.81a5.857 5.857 0 0 0 3 .81 6.531 6.531 0 0 0 1-.08 2.211 2.211 0 0 0 .25-.05c.11-.02.22-.05.33-.08a3.811 3.811 0 0 0 .51-.17 3.646 3.646 0 0 0 .35-.14 5.933 5.933 0 0 0 .56-.29v3.81l2.67 2z" fill="#ffdaaa"/><path d="m31 30v6a5.985 5.985 0 0 1 -3 5.19 5.961 5.961 0 0 1 -6 0 5.985 5.985 0 0 1 -3-5.19v-6l4-2h1a6.082 6.082 0 0 1 0 2c-.42 1.21-1.19 1.64-1 2 .3.56 2.67.43 4-1a3.81 3.81 0 0 0 .9-1.78z" fill="#ffdaaa"/><path d="m32 48-2 3h-.86l.86-3-1.33-1-2.67-2v-3.08a2.211 2.211 0 0 0 .25-.05c.11-.02.22-.05.33-.08a3.811 3.811 0 0 0 .51-.17 3.646 3.646 0 0 0 .35-.14 5.933 5.933 0 0 0 .56-.29v3.81l2.67 2z" fill="#ffc477"/><path d="m34 23v2a5.985 5.985 0 0 1 -3 5.19v-.19l-1.26-.32a5.973 5.973 0 0 0 2.26-4.68v-2z" fill="#ffcd00"/><path d="m31 30v6a5.985 5.985 0 0 1 -3 5.19 5.79 5.79 0 0 1 -2 .73v-.73a5.985 5.985 0 0 0 3-5.19v-6l-1.23-.31a4.773 4.773 0 0 0 .13-.47z" fill="#ffc477"/><circle cx="19" cy="5" fill="#ffde55" r="2"/><path d="m19 33v3h-2a1 1 0 0 1 -1-1v-1a1 1 0 0 1 1-1z" fill="#ffdaaa"/><circle cx="5" cy="5" fill="#ffde55" r="2"/><path d="m46.474 18.851a1 1 0 0 0 .973.044l10-5a1 1 0 0 0 0-1.79l-10-5a1 1 0 0 0 -1.447.895v10a1 1 0 0 0 .474.851zm1.526-9.233 6.764 3.382-6.764 3.382z"/><path d="m61 54h-1v-34.7a10.858 10.858 0 0 0 2-6.3 10.993 10.993 0 0 0 -21.57-3h-20.43v-2.18a3 3 0 1 0 -2 0v2.18h-12v-2.18a3 3 0 1 0 -2 0v3.18a1 1 0 0 0 1 1h13v3a1 1 0 0 0 1 1h21.43a10.509 10.509 0 0 0 .78 2h-36.21a1 1 0 0 0 -1 1v35h-1a1.011 1.011 0 0 0 -.76.35 1.039 1.039 0 0 0 -.23.81l.73 4.33a2.978 2.978 0 0 0 2.95 2.51h52.62a2.978 2.978 0 0 0 2.95-2.51l.73-4.33a1.039 1.039 0 0 0 -.23-.81 1.011 1.011 0 0 0 -.76-.35zm-56-48a1 1 0 1 1 1-1 1 1 0 0 1 -1 1zm14 0a1 1 0 1 1 1-1 1 1 0 0 1 -1 1zm21.05 8h-20.05v-2h20.05c-.03.33-.05.66-.05 1s.02.67.05 1zm10.95-10a9 9 0 1 1 -9 9 9.014 9.014 0 0 1 9-9zm-45 16h36.52a10.986 10.986 0 0 0 15.48 1.48v32.52h-16.06a9.016 9.016 0 0 0 -8.94-8h-2l-2-1.5v-2.76a7.007 7.007 0 0 0 2.92-4.74h1.08a2.006 2.006 0 0 0 2-2v-1a2.006 2.006 0 0 0 -2-2h-1v-1.28a6.981 6.981 0 0 0 3-5.72v-2a1 1 0 0 0 -1-1h-14a5 5 0 0 0 -5 5v2a3.009 3.009 0 0 0 3 3h-1a2.006 2.006 0 0 0 -2 2v1a2.006 2.006 0 0 0 2 2h1.08a7.007 7.007 0 0 0 2.92 4.74v2.76l-2 1.5h-2a9.016 9.016 0 0 0 -8.94 8h-2.06zm22 34h-17.92a7 7 0 0 1 6.92-6h.02a.918.918 0 0 0 .15.55l2 3a1 1 0 0 0 .83.45h10a1 1 0 0 0 .83-.45l2-3a.918.918 0 0 0 .15-.55h.02a7 7 0 0 1 6.92 6h-3.92a1 1 0 0 0 -1 1v1h-6v-1a1 1 0 0 0 -1-1zm3.02-25.03-2.88-.72a.994.994 0 0 0 -.77.12 1.02 1.02 0 0 0 -.45.64 2.8 2.8 0 0 1 -.65 1.31 3.419 3.419 0 0 1 -1.75.93 4.95 4.95 0 0 0 .42-.92 6.34 6.34 0 0 0 .05-2.48.993.993 0 0 0 -.99-.85h-1a1 1 0 0 0 -.45.11l-4 2a.988.988 0 0 0 -.55.89 1 1 0 0 1 -1-1v-2a3.009 3.009 0 0 1 3-3h13v1a4.992 4.992 0 0 1 -1.98 3.97zm.98 5.03h1v1h-1zm-12-3.38 3.09-1.55a2.347 2.347 0 0 1 -.03.6 3.954 3.954 0 0 1 -.6 1.06 1.589 1.589 0 0 0 -.34 1.74 1.669 1.669 0 0 0 1.37.81 5.32 5.32 0 0 0 4.25-1.61 4.829 4.829 0 0 0 .82-1.25l1.44.36v5.22a5 5 0 0 1 -10 0zm2.6 15.18a1.014 1.014 0 0 0 .4-.8v-2.29a7.042 7.042 0 0 0 4 0v2.29a1.014 1.014 0 0 0 .4.8l3.24 2.43-1.18 1.77h-8.92l-1.18-1.77zm-4.6-11.8v1h-1v-1zm41.29 25.17a.989.989 0 0 1 -.98.83h-52.62a.989.989 0 0 1 -.98-.83l-.53-3.17h22.82v1a1 1 0 0 0 1 1h8a1 1 0 0 0 1-1v-1h22.82z"/><path d="m40 40h1v3a1 1 0 0 0 .617.924.987.987 0 0 0 .383.076 1 1 0 0 0 .707-.293l3.707-3.707h6.586a3 3 0 0 0 3-3v-8a3 3 0 0 0 -3-3h-13a3 3 0 0 0 -3 3v8a3 3 0 0 0 3 3zm-1-11a1 1 0 0 1 1-1h13a1 1 0 0 1 1 1v8a1 1 0 0 1 -1 1h-7a1 1 0 0 0 -.707.293l-2.293 2.293v-1.586a1 1 0 0 0 -1-1h-2a1 1 0 0 1 -1-1z"/><path d="m41 30h11v2h-11z"/><path d="m41 34h11v2h-11z"/></g></svg>